<svg xmlns="http://www.w3.org/2000/svg" data-name="Layer 2" viewBox="0 0 64 64"><path d="M58,20.64H43.36V6a3,3,0,0,0-3-3H6A3,3,0,0,0,3,6V40.36a3,3,0,0,0,3,3H20.64V58a3,3,0,0,0,3,3H58a3,3,0,0,0,3-3V23.64A3,3,0,0,0,58,20.64ZM59,58a1,1,0,0,1-1,1H23.64a1,1,0,0,1-1-1V43.36h1.5a1,1,0,0,0,0-2h-1.5v-1.5a1,1,0,0,0-2,0v1.5H6a1,1,0,0,1-1-1V6A1,1,0,0,1,6,5H40.36a1,1,0,0,1,1,1V20.64h-1.5a1,1,0,0,0,0,2h1.5v1.5a1,1,0,0,0,2,0v-1.5H58a1,1,0,0,1,1,1Z"/><path d="M42.36 38.86a1 1 0 00-1 1v1.5h-1.5a1 1 0 000 2h2.5a1 1 0 001-1v-2.5A1 1 0 0042.36 38.86zM34.62 41.36H29.38a1 1 0 100 2h5.24a1 1 0 000-2zM21.64 28.38a1 1 0 00-1 1v5.24a1 1 0 002 0V29.38A1 1 0 0021.64 28.38zM24.14 20.64h-2.5a1 1 0 00-1 1v2.5a1 1 0 002 0v-1.5h1.5a1 1 0 000-2zM34.62 20.64H29.38a1 1 0 100 2h5.24a1 1 0 000-2zM42.36 28.38a1 1 0 00-1 1v5.24a1 1 0 002 0V29.38A1 1 0 0042.36 28.38z"/></svg>