<svg xmlns="http://www.w3.org/2000/svg" viewBox="0 0 30 30"><path fill-rule="evenodd" d="M2.51 10h7.98c.282 0 .51.222.51.51V19h8.49c.282 0 .51.222.51.51v7.98c0 .282-.228.51-.5.51h-17a.503.503 0 0 1-.5-.5v-17c0-.276.222-.5.51-.5zM10 11v8.49c0 .282.222.51.51.51H19v7H3V11h7zm.5-5c.276 0 .5.214.5.505v.99a.508.508 0 0 1-.5.505.495.495 0 0 1-.5-.505v-.99c0-.279.232-.505.5-.505zm17 0c.276 0 .5.214.5.505v.99a.508.508 0 0 1-.5.505.495.495 0 0 1-.5-.505v-.99c0-.279.232-.505.5-.505zm0 4c.276 0 .5.214.5.505v.99a.508.508 0 0 1-.5.505.495.495 0 0 1-.5-.505v-.99c0-.279.232-.505.5-.505zm0 4c.276 0 .5.214.5.505v.99a.508.508 0 0 1-.5.505.495.495 0 0 1-.5-.505v-.99c0-.279.232-.505.5-.505zM15.495 3h-.99A.508.508 0 0 1 14 2.5c0-.276.214-.5.505-.5h.99c.279 0 .505.232.505.5 0 .276-.214.5-.505.5zm4 0h-.99A.508.508 0 0 1 18 2.5c0-.276.214-.5.505-.5h.99c.279 0 .505.232.505.5 0 .276-.214.5-.505.5zm4 0h-.99A.508.508 0 0 1 22 2.5c0-.276.214-.5.505-.5h.99c.279 0 .505.232.505.5 0 .276-.214.5-.505.5zM10.5 4c.276 0 .5-.232.5-.5V3h.5c.276 0 .5-.232.5-.5 0-.276-.214-.5-.505-.5h-.99a.497.497 0 0 0-.505.505v.99c0 .279.232.505.5.505zm17 0a.505.505 0 0 1-.5-.5V3h-.5a.505.505 0 0 1-.5-.5c0-.276.214-.5.505-.5h.99c.279 0 .505.214.505.505v.99a.508.508 0 0 1-.5.505zm-8 10c.276 0 .5.214.5.505v1.99a.508.508 0 0 1-.5.505.495.495 0 0 1-.5-.505v-1.99c0-.279.232-.505.5-.505zm-4.005-3h-1.99a.508.508 0 0 1-.505-.5c0-.276.214-.5.505-.5h1.99c.279 0 .505.232.505.5 0 .276-.214.5-.505.5zm4.005 1a.505.505 0 0 1-.5-.5V11h-.5a.505.505 0 0 1-.5-.5c0-.276.214-.5.505-.5h.99c.279 0 .505.214.505.505v.99a.508.508 0 0 1-.5.505zm8 6c-.276 0-.5.232-.5.5v.5h-.5c-.276 0-.5.232-.5.5 0 .276.214.5.505.5h.99a.497.497 0 0 0 .505-.505v-.99a.508.508 0 0 0-.5-.505zm-4.005 2h-.99a.508.508 0 0 1-.505-.5c0-.276.214-.5.505-.5h.99c.279 0 .505.232.505.5 0 .276-.214.5-.505.5z"/></svg>